<svg width="13" height="15" viewBox="0 0 13 15" fill="none" xmlns="http://www.w3.org/2000/svg">
<path id="Arrow" d="M5.41405 5.39884C4.47539 4.78372 3.5764 4.1956 2.6769 3.60683C1.90853 3.10253 1.14114 2.59802 0.374721 2.09332C0.124843 1.92805 0.00886213 1.69019 0.0334671 1.38985C0.058072 1.08951 0.22392 0.87934 0.494752 0.758047C0.758332 0.640556 1.00671 0.698919 1.24171 0.851574C2.3069 1.5511 3.37217 2.24984 4.43754 2.9478C5.22606 3.46554 6.01432 3.98384 6.80231 4.5027C7.23283 4.78749 7.32082 5.20232 7.04251 5.63265C6.656 6.23056 6.26515 6.82592 5.86993 7.41875C5.82563 7.48576 5.75687 7.53641 5.70629 7.58788L10.6908 10.8561C10.6823 10.7966 10.6768 10.7388 10.6653 10.6818C10.5663 10.2046 10.4625 9.72832 10.3712 9.24947C10.3105 8.93312 10.4143 8.66383 10.6742 8.47475C10.9224 8.2942 11.1967 8.28017 11.4702 8.42446C11.5711 8.47564 11.6588 8.54931 11.7267 8.63979C11.7946 8.73027 11.8408 8.83513 11.8618 8.9463C12.1014 10.0882 12.3413 11.2332 12.5728 12.3783C12.6602 12.8109 12.3984 13.1988 11.9673 13.2897C10.83 13.5295 9.69197 13.7657 8.55314 13.9982C8.12068 14.0879 7.71189 13.8193 7.63039 13.4081C7.5489 12.9969 7.8063 12.6134 8.23834 12.5161C8.70167 12.4127 9.16787 12.3213 9.63301 12.2248L9.82575 12.1848L9.8552 12.109C9.78116 12.081 9.70932 12.0475 9.64028 12.0088C7.87388 10.8518 6.10834 9.69349 4.34369 8.53383C3.88473 8.23197 3.7986 7.82058 4.09731 7.36304C4.48982 6.7621 4.8841 6.16169 5.28014 5.5618C5.31426 5.5103 5.36004 5.46519 5.41405 5.39884Z" fill="#FF718B"/>
</svg>
