<svg width="15" height="12" viewBox="0 0 15 12" fill="none" xmlns="http://www.w3.org/2000/svg">
<path id="Arrow" d="M5.56072 6.55252C4.76773 7.34664 4.00923 8.10738 3.24999 8.8685C2.6001 9.5184 1.95021 10.1673 1.30032 10.8152C1.08773 11.0263 0.831269 11.0915 0.542193 11.0064C0.253116 10.9213 0.0810205 10.7162 0.0172812 10.4264C-0.0442085 10.1444 0.0633984 9.91308 0.260615 9.71399C1.16196 8.81314 2.06256 7.91204 2.96241 7.01069C3.62955 6.3438 4.29719 5.67729 4.96532 5.01115C5.33164 4.64746 5.75569 4.64559 6.1205 5.00553C6.62742 5.50545 7.13096 6.00911 7.63113 6.51653C7.68774 6.57352 7.72336 6.65113 7.76348 6.71112L11.9763 2.49458C11.9163 2.49083 11.8585 2.48445 11.8004 2.48408C11.313 2.48408 10.8256 2.48895 10.3382 2.48108C10.0161 2.47621 9.77351 2.31986 9.64116 2.02703C9.51481 1.74733 9.5568 1.47587 9.75364 1.23741C9.82425 1.14903 9.91422 1.07805 10.0166 1.02995C10.119 0.981843 10.2311 0.957898 10.3442 0.95996C11.511 0.957336 12.6808 0.955086 13.8491 0.961085C14.2904 0.963335 14.6169 1.29853 14.6184 1.73908C14.6222 2.90138 14.6222 4.06369 14.6184 5.22599C14.6184 5.66767 14.2724 6.01336 13.8532 6.00961C13.434 6.00586 13.1108 5.67592 13.1033 5.23312C13.0962 4.75845 13.1015 4.2834 13.1015 3.80836V3.61151L13.0332 3.56727C12.9908 3.63409 12.9434 3.69763 12.8915 3.75736C11.3997 5.25186 9.90687 6.74524 8.41287 8.23749C8.02406 8.62555 7.60375 8.6263 7.21645 8.24086C6.70778 7.73445 6.19999 7.22641 5.69308 6.71674C5.64958 6.67287 5.61471 6.61888 5.56072 6.55252Z" fill="#63D2A1"/>
</svg>
